<svg xmlns="http://www.w3.org/2000/svg" width="35.288" height="34.553" viewBox="0 0 35.288 34.553">
  <g id="github" transform="translate(0 -5.329)">
    <g id="Grupo_53" data-name="Grupo 53" transform="translate(0 5.329)">
      <path id="Trazado_5" data-name="Trazado 5" d="M17.642,5.329a17.725,17.725,0,0,0-5.573,34.523c.882.163,1.2-.384,1.2-.854,0-.421-.015-1.535-.024-3.013C8.341,37.055,7.3,33.61,7.3,33.61a4.678,4.678,0,0,0-1.958-2.591c-1.6-1.1.119-1.076.119-1.076a3.706,3.706,0,0,1,2.7,1.826A3.75,3.75,0,0,0,13.3,33.24a3.781,3.781,0,0,1,1.12-2.369c-3.917-.448-8.037-1.967-8.037-8.754A6.866,6.866,0,0,1,8.2,17.362a6.383,6.383,0,0,1,.172-4.687s1.482-.476,4.852,1.815a16.654,16.654,0,0,1,8.835,0c3.368-2.292,4.848-1.815,4.848-1.815a6.393,6.393,0,0,1,.176,4.687A6.853,6.853,0,0,1,28.9,22.12c0,6.8-4.124,8.3-8.055,8.74a4.238,4.238,0,0,1,1.2,3.28c0,2.369-.022,4.279-.022,4.859,0,.474.318,1.026,1.213.851A17.727,17.727,0,0,0,17.642,5.329Z" transform="translate(0 -5.329)" fill="#fff"/>
    </g>
  </g>
</svg>
