<svg id="logotipo-de-instagram" xmlns="http://www.w3.org/2000/svg" width="30.704" height="30.704" viewBox="0 0 30.704 30.704">
  <path id="Trazado_2" data-name="Trazado 2" d="M22.231,0H8.473A8.483,8.483,0,0,0,0,8.473V22.231A8.483,8.483,0,0,0,8.473,30.7H22.231A8.483,8.483,0,0,0,30.7,22.231V8.473A8.483,8.483,0,0,0,22.231,0ZM27.98,22.231a5.756,5.756,0,0,1-5.749,5.749H8.473a5.755,5.755,0,0,1-5.749-5.749V8.473A5.756,5.756,0,0,1,8.473,2.724H22.231A5.756,5.756,0,0,1,27.98,8.473V22.231Z" transform="translate(0)" fill="#fff"/>
  <path id="Trazado_3" data-name="Trazado 3" d="M48.88,40.97a7.912,7.912,0,1,0,7.912,7.912A7.921,7.921,0,0,0,48.88,40.97Zm0,13.1a5.187,5.187,0,1,1,5.188-5.187A5.193,5.193,0,0,1,48.88,54.069Z" transform="translate(-33.528 -33.529)" fill="#fff"/>
  <path id="Trazado_4" data-name="Trazado 4" d="M120.919,28.251a2,2,0,1,0,1.413.585A2.006,2.006,0,0,0,120.919,28.251Z" transform="translate(-97.323 -23.12)" fill="#fff"/>
</svg>
