<svg xmlns="http://www.w3.org/2000/svg" width="34.367" height="27.923" viewBox="0 0 34.367 27.923">
  <g id="gorjeo" transform="translate(0)">
    <g id="Grupo_52" data-name="Grupo 52" transform="translate(0 0)">
      <path id="Trazado_1" data-name="Trazado 1" d="M34.367,51.306a14.69,14.69,0,0,1-4.06,1.113,7.006,7.006,0,0,0,3.1-3.894,14.08,14.08,0,0,1-4.468,1.705,7.045,7.045,0,0,0-12.187,4.818,7.255,7.255,0,0,0,.163,1.607,19.943,19.943,0,0,1-14.522-7.37A7.047,7.047,0,0,0,4.558,58.7a6.958,6.958,0,0,1-3.183-.868v.077a7.078,7.078,0,0,0,5.645,6.923,7.032,7.032,0,0,1-1.847.232,6.23,6.23,0,0,1-1.334-.12,7.113,7.113,0,0,0,6.583,4.908,14.157,14.157,0,0,1-8.736,3A13.2,13.2,0,0,1,0,72.762a19.835,19.835,0,0,0,10.808,3.162c12.965,0,20.053-10.74,20.053-20.049,0-.311-.011-.612-.026-.911A14.056,14.056,0,0,0,34.367,51.306Z" transform="translate(0 -48)" fill="#fff"/>
    </g>
  </g>
</svg>
